<svg width="125" height="41" viewBox="0 0 125 41" fill="none" xmlns="http://www.w3.org/2000/svg">
<g clip-path="url(#clip0_55280_571)">
<path d="M88.8613 37.725C89.6203 37.725 90.0693 37.15 90.0693 36.251C90.0693 35.319 89.5873 34.777 88.8773 34.777C88.4713 34.777 88.1893 34.957 87.9783 35.243H87.9683V33.77H87.5283V37.643H87.9683V37.275H87.9783C88.2063 37.589 88.4823 37.725 88.8613 37.725ZM88.8293 37.356C88.2333 37.356 87.9403 36.885 87.9403 36.256C87.9403 35.65 88.2223 35.151 88.8343 35.151C89.3653 35.151 89.6203 35.628 89.6203 36.256C89.6203 36.89 89.3653 37.356 88.8293 37.356ZM90.8123 38.57C91.1533 38.57 91.3703 38.45 91.5973 37.87L92.7953 34.842H92.3293L91.6893 36.587C91.6033 36.82 91.5053 37.134 91.5053 37.134H91.4953C91.4953 37.134 91.3913 36.82 91.3053 36.587L90.6443 34.842H90.1673L91.2613 37.562L91.1533 37.838C91.0453 38.109 90.9203 38.18 90.7363 38.18C90.6335 38.1852 90.5311 38.1646 90.4383 38.12H90.4163V38.51C90.5363 38.559 90.6443 38.57 90.8123 38.57ZM93.9183 37.643H94.6553V33.77H93.9183V37.643ZM96.4573 37.725C97.3183 37.725 97.9093 37.085 97.9093 36.256C97.9093 35.427 97.3193 34.788 96.4573 34.788C95.5963 34.788 95.0053 35.428 95.0053 36.256C95.0053 37.086 95.5953 37.725 96.4573 37.725ZM96.4573 37.161C96.0023 37.161 95.7533 36.798 95.7533 36.256C95.7533 35.715 96.0023 35.346 96.4573 35.346C96.9073 35.346 97.1613 35.715 97.1613 36.256C97.1613 36.798 96.9073 37.161 96.4573 37.161ZM99.4763 38.591C99.8883 38.591 100.245 38.494 100.478 38.277C100.684 38.087 100.809 37.822 100.809 37.432V34.864H100.099V35.157H100.088C99.9203 34.924 99.6663 34.788 99.3183 34.788C98.6153 34.788 98.1163 35.319 98.1163 36.148C98.1163 36.988 98.7233 37.475 99.3413 37.475C99.6933 37.475 99.9043 37.335 100.066 37.15H100.083V37.454C100.083 37.833 99.8833 38.034 99.4653 38.034C99.1243 38.034 98.9673 37.898 98.9073 37.724H98.1763C98.2513 38.266 98.7173 38.591 99.4763 38.591ZM99.4663 36.885C99.0863 36.885 98.8363 36.609 98.8363 36.137C98.8363 35.671 99.0863 35.379 99.4603 35.379C99.9043 35.379 100.121 35.725 100.121 36.132C100.121 36.544 99.9313 36.885 99.4653 36.885H99.4663ZM102.6 37.725C103.461 37.725 104.052 37.085 104.052 36.256C104.052 35.427 103.461 34.788 102.6 34.788C101.738 34.788 101.148 35.428 101.148 36.256C101.148 37.086 101.738 37.725 102.6 37.725ZM102.6 37.161C102.145 37.161 101.895 36.798 101.895 36.256C101.895 35.715 102.145 35.346 102.6 35.346C103.049 35.346 103.304 35.715 103.304 36.256C103.304 36.798 103.049 37.161 102.6 37.161ZM104.394 37.643H105.131V34.864H104.394V37.643ZM104.394 34.431H105.131V33.77H104.394V34.431ZM105.606 38.553H106.343V37.33H106.353C106.511 37.569 106.765 37.726 107.155 37.726C107.87 37.726 108.358 37.156 108.358 36.257C108.358 35.39 107.887 34.789 107.15 34.789C106.99 34.7864 106.831 34.8237 106.688 34.8975C106.545 34.9713 106.423 35.0794 106.332 35.212H106.316V34.865H105.606V38.555V38.553ZM106.998 37.113C106.559 37.113 106.326 36.782 106.326 36.278C106.326 35.78 106.511 35.384 106.971 35.384C107.426 35.384 107.61 35.752 107.61 36.278C107.61 36.804 107.372 37.113 106.998 37.113ZM109.828 37.725C110.521 37.725 110.998 37.389 110.998 36.831C110.998 36.181 110.483 36.051 110.017 35.953C109.622 35.872 109.254 35.85 109.254 35.612C109.254 35.412 109.443 35.302 109.73 35.302C110.045 35.302 110.234 35.412 110.267 35.709H110.933C110.879 35.151 110.473 34.789 109.741 34.789C109.107 34.789 108.609 35.075 108.609 35.677C108.609 36.283 109.096 36.419 109.595 36.517C109.974 36.592 110.326 36.619 110.326 36.885C110.326 37.08 110.142 37.205 109.817 37.205C109.487 37.205 109.259 37.064 109.21 36.744H108.528C108.571 37.334 109.021 37.725 109.828 37.725ZM113.796 37.643V34.864H113.059V36.468C113.059 36.836 112.847 37.096 112.501 37.096C112.187 37.096 112.04 36.917 112.04 36.592V34.864H111.309V36.717C111.309 37.324 111.656 37.719 112.273 37.719C112.663 37.719 112.88 37.573 113.07 37.319H113.086V37.643H113.796ZM114.272 37.643H115.009V36.03C115.009 35.661 115.209 35.423 115.507 35.423C115.778 35.423 115.935 35.586 115.935 35.9V37.644H116.672V36.03C116.672 35.661 116.862 35.423 117.171 35.423C117.442 35.423 117.599 35.586 117.599 35.9V37.644H118.336V35.775C118.336 35.168 118.005 34.789 117.42 34.789C117.068 34.789 116.775 34.973 116.586 35.277H116.575C116.509 35.1294 116.4 35.0046 116.263 34.9178C116.126 34.8311 115.967 34.7863 115.805 34.789C115.643 34.7849 115.482 34.8245 115.34 34.9037C115.198 34.9828 115.08 35.0987 114.998 35.239H114.982V34.865H114.272V37.645V37.643Z" fill="#E5708C"/>
<path d="M118.481 2.64918C118.481 1.46618 119.44 0.506183 120.623 0.506183H122.052C122.62 0.506183 123.165 0.731962 123.567 1.13385C123.969 1.53574 124.195 2.08082 124.195 2.64918C124.195 3.21754 123.969 3.76262 123.567 4.16451C123.165 4.5664 122.62 4.79218 122.052 4.79218H120.623C120.341 4.79218 120.063 4.73674 119.803 4.62904C119.543 4.52133 119.307 4.36346 119.108 4.16445C118.909 3.96544 118.751 3.72919 118.643 3.4692C118.536 3.2092 118.48 2.93056 118.481 2.64918ZM58.4896 14.7902C58.4896 22.6782 52.0956 29.0732 44.2066 29.0732C36.3186 29.0732 29.9236 22.6782 29.9236 14.7902C29.9236 6.90018 36.3186 0.507183 44.2066 0.507183C52.0956 0.507183 58.4896 6.90018 58.4896 14.7902ZM27.1376 14.7192C27.9276 14.7192 28.5736 15.3592 28.4946 16.1452C28.2246 18.835 27.1968 21.393 25.5307 23.5218C23.8645 25.6507 21.6285 27.263 19.0823 28.1713C16.5361 29.0797 13.7845 29.2468 11.1471 28.6533C8.50973 28.0597 6.09494 26.7299 4.1834 24.8184C2.27185 22.9068 0.942035 20.4921 0.348505 17.8547C-0.245025 15.2173 -0.0778988 12.4656 0.830461 9.91948C1.73882 7.37333 3.35111 5.13724 5.47996 3.47109C7.6088 1.80494 10.1668 0.777157 12.8566 0.507183C13.6416 0.427183 14.2826 1.07518 14.2826 1.86318V13.2902C14.2826 14.0802 14.9226 14.7192 15.7116 14.7192H27.1376ZM78.4866 31.9302C79.623 31.9302 80.713 32.3816 81.5165 33.1852C82.3201 33.9888 82.7716 35.0787 82.7716 36.2152C82.7716 37.3516 82.3201 38.4415 81.5165 39.2451C80.713 40.0487 79.623 40.5002 78.4866 40.5002H71.3456C70.2091 40.5002 69.1192 40.0487 68.3156 39.2451C67.512 38.4415 67.0606 37.3516 67.0606 36.2152C67.0606 35.0787 67.512 33.9888 68.3156 33.1852C69.1192 32.3816 70.2091 31.9302 71.3456 31.9302H78.4866ZM74.2016 29.0732C82.0906 29.0732 88.4856 22.6782 88.4856 14.7902C88.489 12.3671 87.8732 9.98339 86.6966 7.86518L89.0566 5.50518C89.3284 5.23322 89.544 4.91037 89.6911 4.55508C89.8382 4.19978 89.9138 3.819 89.9137 3.43448C89.9136 3.04995 89.8378 2.6692 89.6906 2.31398C89.5433 1.95876 89.3276 1.63602 89.0556 1.36418C88.7836 1.09235 88.4608 0.87674 88.1055 0.729673C87.7502 0.582607 87.3694 0.506961 86.9849 0.507053C86.6004 0.507146 86.2196 0.582976 85.8644 0.730215C85.5092 0.877453 85.1864 1.09321 84.9146 1.36518L82.8546 3.42518C80.3694 1.52709 77.3278 0.501151 74.2006 0.506183C66.3136 0.507183 59.9196 6.90018 59.9196 14.7902C59.9196 22.6782 66.3136 29.0732 74.2016 29.0732ZM118.481 14.7902C118.481 22.6782 112.086 29.0732 104.197 29.0732C96.3086 29.0732 89.9136 22.6782 89.9136 14.7902C89.9136 6.90018 96.3086 0.507183 104.197 0.507183C112.086 0.507183 118.481 6.90118 118.481 14.7902Z" fill="url(#paint0_linear_55280_571)"/>
</g>
<defs>
<linearGradient id="paint0_linear_55280_571" x1="-0.000401633" y1="16.5002" x2="119" y2="16.5002" gradientUnits="userSpaceOnUse">
<stop stop-color="#64C2DB"/>
<stop offset="0.307" stop-color="#7476ED"/>
<stop offset="0.604" stop-color="#C994DF"/>
<stop offset="1" stop-color="#E56F8C"/>
</linearGradient>
<clipPath id="clip0_55280_571">
<rect width="125" height="40" fill="white" transform="translate(0 0.5)"/>
</clipPath>
</defs>
</svg>
